<svg width="649" height="692" viewBox="0 0 649 692" fill="none" xmlns="http://www.w3.org/2000/svg">
<path d="M144.472 594.756C139.752 590.819 130.289 579.814 116.854 561.624C104.823 545.335 98.6515 531.575 95.0703 517.357C91.046 501.38 93.1018 488.055 89.1648 483.324C78.6469 470.683 59.9461 464.362 46.8902 457.235C28.4205 447.153 21.9997 427.27 18.3829 409.435C14.3571 389.583 17.9679 364.041 28.2134 331.23C37.7356 300.734 63.7882 283.31 67.7844 273.836C70.5519 267.274 63.0767 259.594 55.2028 253.285C35.3191 237.354 14.8847 235.877 8.51683 226.403C4.00151 219.684 2.17266 208.248 3.34663 194.836C5.28465 172.695 21.0984 158.467 32.1741 146.549C39.8425 138.298 64.4522 130.007 80.4016 121.232C82.6062 120.019 85.133 120.425 83.9946 120.425C82.8563 120.425 78.1604 120.425 75.35 119.251C72.5396 118.077 71.7569 115.729 70.9624 112.563C69.1971 105.528 72.4921 95.1909 81.1605 83.3564C99.1196 58.8376 127.016 56.3907 152.275 51.6711C175.323 47.3644 203.621 45.3388 251.421 43.7498C272.635 43.0446 290.66 29.5436 301.357 24.7884C315.68 18.4208 327.042 8.1987 339.682 5.80334C371.634 -0.251295 424.184 4.97326 438.912 7.75995C455.051 10.8135 470.906 21.5748 492.962 25.156C527.003 30.683 555.503 27.1245 565.76 31.8441C576.4 36.7397 583.18 55.4894 591.078 79.1348C599.693 104.931 595.892 136.861 592.346 166.068C589.718 187.723 585.599 198.666 587.556 203.789C593.571 219.539 613.205 222.359 626.261 242.067C637.464 258.978 640.123 281.603 643.681 312.268C649.922 366.066 643.325 406.541 638.605 421.898C627.128 459.244 614.106 473.707 595.157 503.732C589.263 513.071 586.405 518.839 584.034 523.57C579.777 532.062 585.599 545.662 581.662 560.711C578.792 571.68 572.982 582.85 564.681 594.317C557.783 603.846 543.763 605.808 533.85 609.756C523.173 614.009 516.869 629.477 486.511 657.889C462.372 680.482 426.793 684.878 410.156 687.238C402.194 688.368 389.629 689.622 374.629 688.839C346.639 687.379 325.571 646.979 314.875 639.449C302.899 631.019 292.368 622.457 278.921 619.267C263.206 615.539 253.615 627.152 242.148 627.176C228.528 627.204 213.297 620.085 203.799 616.112C194.562 612.249 184.837 609.792 175.339 606.626C165.84 603.46 160.157 595.574 153.994 595.574C152.369 595.574 146.891 595.562 144.472 594.756Z" stroke="#FA996B" stroke-width="5" stroke-linecap="round"/>
</svg>
